# xmcd
#
# Track frame offsets: 
#        150
#        19535
#        37065
#        59320
#        81125
#        107455
#        127030
#        147045
#        162765
#        180725
#        199050
#
# Disc length: 2947 seconds
#
# Revision: 0
# Processed by: cddbd v1.5.2PL0 Copyright (c) Steve Scherf et al.
# Submitted via: ExactAudioCopy v0.95b3
#
DISCID=8c0b810b
DTITLE=Brad Webb - Brad Webb and Friends II
DYEAR=1900
DGENRE=Blues
TTITLE0=Big Bad Wolf
TTITLE1=Bayou Queen
TTITLE2=The Cecil Strut
TTITLE3=Low Down and Dirty
TTITLE4=Yeah Yeah Yeah
TTITLE5=Mama Look At Sis
TTITLE6=Louise
TTITLE7=Right Track
TTITLE8=Your Mine
TTITLE9=Country Days
TTITLE10=Slow Smokin'
EXTD=
EXTT0=
EXTT1=
EXTT2=
EXTT3=
EXTT4=
EXTT5=
EXTT6=
EXTT7=
EXTT8=
EXTT9=
EXTT10=
PLAYORDER=
